<!--
  - Licensed to the AcmeStack under one or more contributor license
  - agreements. See the NOTICE file distributed with this work for
  - additional information regarding copyright ownership.
  - Licensed under the Apache License, Version 2.0 (the "License");
  - you may not use this file except in compliance with the License.
  - You may obtain a copy of the License at
  -
  -   http://www.apache.org/licenses/LICENSE-2.0
  -
  - Unless required by applicable law or agreed to in writing, software
  - distributed under the License is distributed on an "AS IS" BASIS,
  - WITHOUT WARRANTIES OR CONDITIONS OF ANY KIND, either express or implied.
  - See the License for the specific language governing permissions and
  - limitations under the License.
  -->

<svg id="SvgjsSvg1006" width="890.1750183105469" height="333" xmlns="http://www.w3.org/2000/svg" version="1.1" xmlns:xlink="http://www.w3.org/1999/xlink" xmlns:svgjs="http://svgjs.com/svgjs"><defs id="SvgjsDefs1007"><marker id="SvgjsMarker1047" markerWidth="14" markerHeight="10" refX="10" refY="5" viewBox="0 0 14 10" orient="auto" markerUnits="userSpaceOnUse" stroke-dasharray="0,0"><path id="SvgjsPath1048" d="M0,0 L14,5 L0,10 L0,0" fill="#4caf50" stroke="#4caf50" stroke-width="1"></path></marker><marker id="SvgjsMarker1137" markerWidth="14" markerHeight="10" refX="10" refY="5" viewBox="0 0 14 10" orient="auto" markerUnits="userSpaceOnUse" stroke-dasharray="0,0"><path id="SvgjsPath1138" d="M0,0 L14,5 L0,10 L0,0" fill="#4dd0e1" stroke="#4dd0e1" stroke-width="1"></path></marker><marker id="SvgjsMarker1141" markerWidth="14" markerHeight="10" refX="10" refY="5" viewBox="0 0 14 10" orient="auto" markerUnits="userSpaceOnUse" stroke-dasharray="0,0"><path id="SvgjsPath1142" d="M0,0 L14,5 L0,10 L0,0" fill="#4dd0e1" stroke="#4dd0e1" stroke-width="1"></path></marker><marker id="SvgjsMarker1145" markerWidth="16" markerHeight="12" refX="11" refY="6" viewBox="0 0 16 12" orient="auto" markerUnits="userSpaceOnUse" stroke-dasharray="0,0"><path id="SvgjsPath1146" d="M0,0 L16,6 L0,12 L0,0" fill="#4dd0e1" stroke="#4dd0e1" stroke-width="1"></path></marker></defs><g id="SvgjsG1008" transform="translate(30.500015258789062,25.00000762939453)"><path id="SvgjsPath1009" d="M 0 4Q 0 0 4 0L 175 0Q 179 0 179 4L 179 279Q 179 283 175 283L 4 283Q 0 283 0 279Z" stroke-dasharray="3,4" stroke="rgba(50,50,50,1)" stroke-width="2" fill-opacity="1" fill="#ffffff"></path><g id="SvgjsG1010"><text id="SvgjsText1011" font-family="微软雅黑" text-anchor="middle" font-size="13px" width="159px" fill="#323232" font-weight="400" align="middle" lineHeight="125%" anchor="middle" family="微软雅黑" size="13px" weight="400" font-style="" opacity="1" y="130.875" transform="rotate(0)"></text></g></g><g id="SvgjsG1012" transform="translate(44.50001525878906,45.50000762939453)"><path id="SvgjsPath1013" d="M 0 4Q 0 0 4 0L 147 0Q 151 0 151 4L 151 48Q 151 52 147 52L 4 52Q 0 52 0 48Z" stroke="none" fill-opacity="1" fill="#00bcd4"></path><g id="SvgjsG1014"><text id="SvgjsText1015" font-family="微软雅黑" text-anchor="middle" font-size="13px" width="131px" fill="#ffffff" font-weight="700" align="middle" lineHeight="125%" anchor="middle" family="微软雅黑" size="13px" weight="700" font-style="" opacity="1" y="15.375" transform="rotate(0)"><tspan id="SvgjsTspan1016" dy="16" x="75.5"><tspan id="SvgjsTspan1017" style="text-decoration:;">Admin Console</tspan></tspan></text></g></g><g id="SvgjsG1018" transform="translate(25.000015258789062,190.25000762939453)"><path id="SvgjsPath1019" d="M 0 0L 190 0L 190 70.5L 0 70.5Z" stroke="none" fill="none"></path><g id="SvgjsG1020"><text id="SvgjsText1021" font-family="微软雅黑" text-anchor="middle" font-size="18px" width="190px" fill="#323232" font-weight="700" align="middle" lineHeight="125%" anchor="middle" family="微软雅黑" size="18px" weight="700" font-style="" opacity="1" y="8.5" transform="rotate(0)"><tspan id="SvgjsTspan1022" dy="22" x="95"><tspan id="SvgjsTspan1023" style="text-decoration:;">Envcd </tspan></tspan><tspan id="SvgjsTspan1024" dy="22" x="95"><tspan id="SvgjsTspan1025" style="text-decoration:;">Console/Provider</tspan></tspan></text></g></g><g id="SvgjsG1026" transform="translate(228.00001525878906,25.00000762939453)"><path id="SvgjsPath1027" d="M 0 4Q 0 0 4 0L 401.59999084472656 0Q 405.59999084472656 0 405.59999084472656 4L 405.59999084472656 279Q 405.59999084472656 283 401.59999084472656 283L 4 283Q 0 283 0 279Z" stroke-dasharray="3,4" stroke="rgba(50,50,50,1)" stroke-width="2" fill-opacity="1" fill="#ffffff"></path><g id="SvgjsG1028"><text id="SvgjsText1029" font-family="微软雅黑" text-anchor="middle" font-size="13px" width="386px" fill="#323232" font-weight="400" align="middle" lineHeight="125%" anchor="middle" family="微软雅黑" size="13px" weight="400" font-style="" opacity="1" y="130.875" transform="rotate(0)"></text></g></g><g id="SvgjsG1030" transform="translate(246.00001525878906,36.12500762939453)"><path id="SvgjsPath1031" d="M 0 4Q 0 0 4 0L 75 0Q 79 0 79 4L 79 256.75Q 79 260.75 75 260.75L 4 260.75Q 0 260.75 0 256.75Z" stroke="none" fill-opacity="1" fill="#81c784"></path><g id="SvgjsG1032"><text id="SvgjsText1033" font-family="微软雅黑" text-anchor="middle" font-size="13px" width="59px" fill="#ffffff" font-weight="700" align="middle" lineHeight="125%" anchor="middle" family="微软雅黑" size="13px" weight="700" font-style="" opacity="1" y="111.25" transform="rotate(0)"><tspan id="SvgjsTspan1034" dy="16" x="39.5"><tspan id="SvgjsTspan1035" style="text-decoration:;">Open</tspan><tspan id="SvgjsTspan1036" style="text-decoration:;font-size: inherit;">API</tspan></tspan><tspan id="SvgjsTspan1037" dy="16" x="39.5"><tspan id="SvgjsTspan1038" style="text-decoration:;font-size: inherit;">(http)</tspan></tspan></text></g></g><g id="SvgjsG1039" transform="translate(345.50001525878906,80.75000762939453)"><path id="SvgjsPath1040" d="M 0 4Q 0 0 4 0L 259 0Q 263 0 263 4L 263 33Q 263 37 259 37L 4 37Q 0 37 0 33Z" stroke="none" fill-opacity="1" fill="#ba68c8"></path><g id="SvgjsG1041"><text id="SvgjsText1042" font-family="微软雅黑" text-anchor="middle" font-size="13px" width="243px" fill="#ffffff" font-weight="700" align="middle" lineHeight="125%" anchor="middle" family="微软雅黑" size="13px" weight="700" font-style="" opacity="1" y="7.875" transform="rotate(0)"><tspan id="SvgjsTspan1043" dy="16" x="131.5"><tspan id="SvgjsTspan1044" style="text-decoration:;">Configuration Service</tspan></tspan></text></g></g><g id="SvgjsG1045"><path id="SvgjsPath1046" d="M210.50001525878906 166.50000762939453L226.50001525878906 166.50000762939453L226.50001525878906 166.50000762939453L243.40001525878904 166.50000762939453" stroke="#4caf50" stroke-width="2" fill="none" marker-end="url(#SvgjsMarker1047)"></path></g><g id="SvgjsG1049" transform="translate(651.1750106811523,25.00000762939453)"><path id="SvgjsPath1050" d="M 0 4Q 0 0 4 0L 209.65000915527344 0Q 213.65000915527344 0 213.65000915527344 4L 213.65000915527344 279Q 213.65000915527344 283 209.65000915527344 283L 4 283Q 0 283 0 279Z" stroke-dasharray="3,4" stroke="rgba(50,50,50,1)" stroke-width="2" fill-opacity="1" fill="#ffffff"></path><g id="SvgjsG1051"><text id="SvgjsText1052" font-family="微软雅黑" text-anchor="middle" font-size="13px" width="194px" fill="#323232" font-weight="400" align="middle" lineHeight="125%" anchor="middle" family="微软雅黑" size="13px" weight="400" font-style="" opacity="1" y="130.875" transform="rotate(0)"></text></g></g><g id="SvgjsG1053" transform="translate(668.5000152587891,40.00000762939453)"><path id="SvgjsPath1054" d="M 0 4Q 0 0 4 0L 175 0Q 179 0 179 4L 179 48Q 179 52 175 52L 4 52Q 0 52 0 48Z" stroke="none" fill-opacity="1" fill="#4dd0e1"></path><g id="SvgjsG1055"><text id="SvgjsText1056" font-family="微软雅黑" text-anchor="middle" font-size="13px" width="159px" fill="#ffffff" font-weight="700" align="middle" lineHeight="125%" anchor="middle" family="微软雅黑" size="13px" weight="700" font-style="" opacity="1" y="6.875" transform="rotate(0)"><tspan id="SvgjsTspan1057" dy="16" x="89.5"><tspan id="SvgjsTspan1058" style="text-decoration:;">Appliaction</tspan></tspan><tspan id="SvgjsTspan1059" dy="16" x="89.5"><tspan id="SvgjsTspan1060" style="text-decoration:;">(Envcd Client)</tspan></tspan></text></g></g><g id="SvgjsG1061" transform="translate(672.0000152587891,199.50000762939453)"><path id="SvgjsPath1062" d="M 0 4Q 0 0 4 0L 168 0Q 172 0 172 4L 172 48Q 172 52 168 52L 4 52Q 0 52 0 48Z" stroke="none" fill-opacity="1" fill="#4dd0e1"></path><g id="SvgjsG1063"><text id="SvgjsText1064" font-family="微软雅黑" text-anchor="middle" font-size="13px" width="152px" fill="#ffffff" font-weight="700" align="middle" lineHeight="125%" anchor="middle" family="微软雅黑" size="13px" weight="700" font-style="" opacity="1" y="6.875" transform="rotate(0)"><tspan id="SvgjsTspan1065" dy="16" x="86"><tspan id="SvgjsTspan1066" style="text-decoration:;">Kubenetes</tspan></tspan><tspan id="SvgjsTspan1067" dy="16" x="86"><tspan id="SvgjsTspan1068" style="text-decoration:;">(Envcd Sidecar)</tspan></tspan></text></g></g><g id="SvgjsG1069" transform="translate(680.3750152587891,256.50000762939453)"><path id="SvgjsPath1070" d="M 0 0L 172 0L 172 46L 0 46Z" stroke="none" fill="none"></path><g id="SvgjsG1071"><text id="SvgjsText1072" font-family="微软雅黑" text-anchor="middle" font-size="20px" width="172px" fill="#323232" font-weight="700" align="middle" lineHeight="125%" anchor="middle" family="微软雅黑" size="20px" weight="700" font-style="" opacity="1" y="5" transform="rotate(0)"><tspan id="SvgjsTspan1073" dy="25" x="86"><tspan id="SvgjsTspan1074" style="text-decoration:;">Envcd Consumer</tspan></tspan></text></g></g><g id="SvgjsG1075" transform="translate(370.87501525878906,278.07813262939453)"><path id="SvgjsPath1076" d="M 0 0L 263 0L 263 26L 0 26Z" stroke="none" fill="none"></path><g id="SvgjsG1077"><text id="SvgjsText1078" font-family="微软雅黑" text-anchor="middle" font-size="20px" width="263px" fill="#323232" font-weight="700" align="middle" lineHeight="125%" anchor="middle" family="微软雅黑" size="20px" weight="700" font-style="" opacity="1" y="-5" transform="rotate(0)"><tspan id="SvgjsTspan1079" dy="25" x="131.5"><tspan id="SvgjsTspan1080" style="text-decoration:;">Envcd Server</tspan></tspan></text></g></g><g id="SvgjsG1081" transform="translate(345.50001525878906,40.00000762939453)"><path id="SvgjsPath1082" d="M 0 4Q 0 0 4 0L 259 0Q 263 0 263 4L 263 33Q 263 37 259 37L 4 37Q 0 37 0 33Z" stroke="none" fill-opacity="1" fill="#2196f3"></path><g id="SvgjsG1083"><text id="SvgjsText1084" font-family="微软雅黑" text-anchor="middle" font-size="13px" width="243px" fill="#ffffff" font-weight="700" align="middle" lineHeight="125%" anchor="middle" family="微软雅黑" size="13px" weight="700" font-style="" opacity="1" y="7.875" transform="rotate(0)"><tspan id="SvgjsTspan1085" dy="16" x="131.5"><tspan id="SvgjsTspan1086" style="text-decoration:;">Permission Service</tspan></tspan></text></g></g><g id="SvgjsG1087" transform="translate(343.68751525878906,225.50000762939453)"><path id="SvgjsPath1088" d="M 0 6.44C 0 -1.84 79 -1.84 79 6.44L 79 39.56C 79 47.84 0 47.84 0 39.56L 0 6.44Z" stroke="rgba(50,50,50,1)" stroke-width="2" fill-opacity="1" fill="#f5f5f5"></path><path id="SvgjsPath1089" d="M 79 6.44C 79 13.799999999999999 0 13.799999999999999 0 6.44L 0 9.200000000000001C 0 16.56 79 16.56 79 9.200000000000001L 79 11.96C 79 19.32 0 19.32 0 11.96C 0 19.32 79 19.32 79 11.96Z" stroke="rgba(50,50,50,1)" stroke-width="2" fill-opacity="1" fill="#f5f5f5"></path><path id="SvgjsPath1090" d="M 0 4.6000000000000005Q 39.5 -4.6000000000000005 79 4.6000000000000005L 79 41.4Q 39.5 50.6 0 41.4L 0 4.6000000000000005Z" stroke="none" fill="none"></path><g id="SvgjsG1091"><text id="SvgjsText1092" font-family="微软雅黑" text-anchor="middle" font-size="13px" width="79px" fill="#323232" font-weight="700" align="middle" lineHeight="125%" anchor="middle" family="微软雅黑" size="13px" weight="700" font-style="" opacity="1" y="20.041666666666668" transform="rotate(0)"><tspan id="SvgjsTspan1093" dy="16" x="39.5"><tspan id="SvgjsTspan1094" style="text-decoration:;">MySQL</tspan></tspan></text></g></g><g id="SvgjsG1095" transform="translate(345.50001525878906,171.10000610351562)"><path id="SvgjsPath1096" d="M 0 4Q 0 0 4 0L 259 0Q 263 0 263 4L 263 33Q 263 37 259 37L 4 37Q 0 37 0 33Z" stroke="none" fill-opacity="1" fill="#ba68c8"></path><g id="SvgjsG1097"><text id="SvgjsText1098" font-family="微软雅黑" text-anchor="middle" font-size="13px" width="243px" fill="#ffffff" font-weight="700" align="middle" lineHeight="125%" anchor="middle" family="微软雅黑" size="13px" weight="700" font-style="" opacity="1" y="7.875" transform="rotate(0)"><tspan id="SvgjsTspan1099" dy="16" x="131.5"><tspan id="SvgjsTspan1100" style="text-decoration:;">Store Service</tspan></tspan></text></g></g><g id="SvgjsG1101" transform="translate(668.5000152587891,118.50000762939453)"><path id="SvgjsPath1102" d="M 0 4Q 0 0 4 0L 175 0Q 179 0 179 4L 179 48Q 179 52 175 52L 4 52Q 0 52 0 48Z" stroke="none" fill-opacity="1" fill="#ba68c8"></path><g id="SvgjsG1103"><text id="SvgjsText1104" font-family="微软雅黑" text-anchor="middle" font-size="13px" width="159px" fill="#ffffff" font-weight="700" align="middle" lineHeight="125%" anchor="middle" family="微软雅黑" size="13px" weight="700" font-style="" opacity="1" y="15.375" transform="rotate(0)"><tspan id="SvgjsTspan1105" dy="16" x="89.5"><tspan id="SvgjsTspan1106" style="text-decoration:;">Watch/Sync Service</tspan></tspan></text></g></g><g id="SvgjsG1107" transform="translate(44.50001525878906,118.50000762939453)"><path id="SvgjsPath1108" d="M 0 4Q 0 0 4 0L 147 0Q 151 0 151 4L 151 48Q 151 52 147 52L 4 52Q 0 52 0 48Z" stroke="none" fill-opacity="1" fill="#00bcd4"></path><g id="SvgjsG1109"><text id="SvgjsText1110" font-family="微软雅黑" text-anchor="middle" font-size="13px" width="131px" fill="#ffffff" font-weight="700" align="middle" lineHeight="125%" anchor="middle" family="微软雅黑" size="13px" weight="700" font-style="" opacity="1" y="15.375" transform="rotate(0)"><tspan id="SvgjsTspan1111" dy="16" x="75.5"><tspan id="SvgjsTspan1112" style="text-decoration:;">User Console</tspan></tspan></text></g></g><g id="SvgjsG1113" transform="translate(345.50001525878906,126.00000762939453)"><path id="SvgjsPath1114" d="M 0 4Q 0 0 4 0L 259 0Q 263 0 263 4L 263 33Q 263 37 259 37L 4 37Q 0 37 0 33Z" stroke="none" fill-opacity="1" fill="#ba68c8"></path><g id="SvgjsG1115"><text id="SvgjsText1116" font-family="微软雅黑" text-anchor="middle" font-size="13px" width="243px" fill="#ffffff" font-weight="700" align="middle" lineHeight="125%" anchor="middle" family="微软雅黑" size="13px" weight="700" font-style="" opacity="1" y="7.875" transform="rotate(0)"><tspan id="SvgjsTspan1117" dy="16" x="131.5"><tspan id="SvgjsTspan1118" style="text-decoration:;">Dictionary Service</tspan></tspan></text></g></g><g id="SvgjsG1119" transform="translate(437.50001525878906,225.50000762939453)"><path id="SvgjsPath1120" d="M 0 6.44C 0 -1.84 79 -1.84 79 6.44L 79 39.56C 79 47.84 0 47.84 0 39.56L 0 6.44Z" stroke="rgba(50,50,50,1)" stroke-width="2" fill-opacity="1" fill="#f5f5f5"></path><path id="SvgjsPath1121" d="M 79 6.44C 79 13.799999999999999 0 13.799999999999999 0 6.44L 0 9.200000000000001C 0 16.56 79 16.56 79 9.200000000000001L 79 11.96C 79 19.32 0 19.32 0 11.96C 0 19.32 79 19.32 79 11.96Z" stroke="rgba(50,50,50,1)" stroke-width="2" fill-opacity="1" fill="#f5f5f5"></path><path id="SvgjsPath1122" d="M 0 4.6000000000000005Q 39.5 -4.6000000000000005 79 4.6000000000000005L 79 41.4Q 39.5 50.6 0 41.4L 0 4.6000000000000005Z" stroke="none" fill="none"></path><g id="SvgjsG1123"><text id="SvgjsText1124" font-family="微软雅黑" text-anchor="middle" font-size="13px" width="79px" fill="#323232" font-weight="700" align="middle" lineHeight="125%" anchor="middle" family="微软雅黑" size="13px" weight="700" font-style="" opacity="1" y="20.041666666666668" transform="rotate(0)"><tspan id="SvgjsTspan1125" dy="16" x="39.5"><tspan id="SvgjsTspan1126" style="text-decoration:;">Redis</tspan></tspan></text></g></g><g id="SvgjsG1127" transform="translate(532.3750152587891,225.50000762939453)"><path id="SvgjsPath1128" d="M 0 6.44C 0 -1.84 79 -1.84 79 6.44L 79 39.56C 79 47.84 0 47.84 0 39.56L 0 6.44Z" stroke="rgba(50,50,50,1)" stroke-width="2" fill-opacity="1" fill="#f5f5f5"></path><path id="SvgjsPath1129" d="M 79 6.44C 79 13.799999999999999 0 13.799999999999999 0 6.44L 0 9.200000000000001C 0 16.56 79 16.56 79 9.200000000000001L 79 11.96C 79 19.32 0 19.32 0 11.96C 0 19.32 79 19.32 79 11.96Z" stroke="rgba(50,50,50,1)" stroke-width="2" fill-opacity="1" fill="#f5f5f5"></path><path id="SvgjsPath1130" d="M 0 4.6000000000000005Q 39.5 -4.6000000000000005 79 4.6000000000000005L 79 41.4Q 39.5 50.6 0 41.4L 0 4.6000000000000005Z" stroke="none" fill="none"></path><g id="SvgjsG1131"><text id="SvgjsText1132" font-family="微软雅黑" text-anchor="middle" font-size="13px" width="79px" fill="#323232" font-weight="700" align="middle" lineHeight="125%" anchor="middle" family="微软雅黑" size="13px" weight="700" font-style="" opacity="1" y="20.041666666666668" transform="rotate(0)"><tspan id="SvgjsTspan1133" dy="16" x="39.5"><tspan id="SvgjsTspan1134" style="text-decoration:;">Etcd</tspan></tspan></text></g></g><g id="SvgjsG1135"><path id="SvgjsPath1136" d="M758.0000152587891 170.50000762939453L758.0000152587891 184.10000610351562L758.0000152587891 184.10000610351562L758.0000152587891 196.9000076293945" stroke="#4dd0e1" stroke-width="2" fill="none" marker-end="url(#SvgjsMarker1137)"></path></g><g id="SvgjsG1139"><path id="SvgjsPath1140" d="M758.0000152587891 118.50000762939453L758.0000152587891 105.25000762939453L758.0000152587891 105.25000762939453L758.0000152587891 94.60000762939455" stroke="#4dd0e1" stroke-width="2" fill="none" marker-end="url(#SvgjsMarker1141)"></path></g><g id="SvgjsG1143"><path id="SvgjsPath1144" d="M612.3750152587891 248.50000762939453L639.1562652587891 248.50000762939453L639.1562652587891 144.50000762939453L664.6000152587891 144.50000762939453" stroke="#4dd0e1" stroke-width="3" fill="none" marker-end="url(#SvgjsMarker1145)"></path></g></svg>